<svg width="24" height="24" viewBox="0 0 24 24" fill="none" xmlns="http://www.w3.org/2000/svg">
<mask id="path-1-inside-1_12982_2100" fill="white">
<path fill-rule="evenodd" clip-rule="evenodd" d="M12.5254 3C17.2053 3.00003 20.999 6.79379 20.9991 11.4736C20.9991 16.1535 17.2053 19.9472 12.5254 19.9473C11.3936 19.9473 10.3155 19.7261 9.3311 19.3252C8.64976 19.0478 7.83773 18.955 7.0518 19.2227L3.60063 20.3984L4.77641 16.9473C5.04406 16.1613 4.95127 15.3493 4.67387 14.668C4.27299 13.6836 4.0518 12.6055 4.0518 11.4736C4.05183 6.79377 7.84557 3 12.5254 3ZM12.5254 21.9473C18.3099 21.9472 22.9991 17.2581 22.9991 11.4736C22.999 5.68922 18.3099 1.00003 12.5254 1C6.741 1 2.05183 5.6892 2.0518 11.4736C2.0518 12.8685 2.32461 14.2021 2.82133 15.4219C2.95435 15.7485 2.96598 16.0574 2.88286 16.3018L1.70805 19.7529C1.1729 21.3244 2.6747 22.8262 4.24614 22.291L7.69731 21.1162C7.94165 21.0331 8.25057 21.0447 8.57719 21.1777C9.79695 21.6745 11.1306 21.9473 12.5254 21.9473ZM9.49924 11.5C9.49924 12.0523 9.05153 12.5 8.49924 12.5C7.94696 12.5 7.49924 12.0523 7.49924 11.5C7.49924 10.9477 7.94696 10.5 8.49924 10.5C9.05153 10.5 9.49924 10.9477 9.49924 11.5ZM13.4992 11.5C13.4992 12.0523 13.0515 12.5 12.4992 12.5C11.947 12.5 11.4992 12.0523 11.4992 11.5C11.4992 10.9477 11.947 10.5 12.4992 10.5C13.0515 10.5 13.4992 10.9477 13.4992 11.5ZM16.4992 12.5C17.0515 12.5 17.4992 12.0523 17.4992 11.5C17.4992 10.9477 17.0515 10.5 16.4992 10.5C15.947 10.5 15.4992 10.9477 15.4992 11.5C15.4992 12.0523 15.947 12.5 16.4992 12.5Z"/>
</mask>
<path fill-rule="evenodd" clip-rule="evenodd" d="M12.5254 3C17.2053 3.00003 20.999 6.79379 20.9991 11.4736C20.9991 16.1535 17.2053 19.9472 12.5254 19.9473C11.3936 19.9473 10.3155 19.7261 9.3311 19.3252C8.64976 19.0478 7.83773 18.955 7.0518 19.2227L3.60063 20.3984L4.77641 16.9473C5.04406 16.1613 4.95127 15.3493 4.67387 14.668C4.27299 13.6836 4.0518 12.6055 4.0518 11.4736C4.05183 6.79377 7.84557 3 12.5254 3ZM12.5254 21.9473C18.3099 21.9472 22.9991 17.2581 22.9991 11.4736C22.999 5.68922 18.3099 1.00003 12.5254 1C6.741 1 2.05183 5.6892 2.0518 11.4736C2.0518 12.8685 2.32461 14.2021 2.82133 15.4219C2.95435 15.7485 2.96598 16.0574 2.88286 16.3018L1.70805 19.7529C1.1729 21.3244 2.6747 22.8262 4.24614 22.291L7.69731 21.1162C7.94165 21.0331 8.25057 21.0447 8.57719 21.1777C9.79695 21.6745 11.1306 21.9473 12.5254 21.9473ZM9.49924 11.5C9.49924 12.0523 9.05153 12.5 8.49924 12.5C7.94696 12.5 7.49924 12.0523 7.49924 11.5C7.49924 10.9477 7.94696 10.5 8.49924 10.5C9.05153 10.5 9.49924 10.9477 9.49924 11.5ZM13.4992 11.5C13.4992 12.0523 13.0515 12.5 12.4992 12.5C11.947 12.5 11.4992 12.0523 11.4992 11.5C11.4992 10.9477 11.947 10.5 12.4992 10.5C13.0515 10.5 13.4992 10.9477 13.4992 11.5ZM16.4992 12.5C17.0515 12.5 17.4992 12.0523 17.4992 11.5C17.4992 10.9477 17.0515 10.5 16.4992 10.5C15.947 10.5 15.4992 10.9477 15.4992 11.5C15.4992 12.0523 15.947 12.5 16.4992 12.5Z" fill="#0D0D12"/>
<path d="M20.9991 11.4736H21.9991V11.4736L20.9991 11.4736ZM12.5254 3L12.5254 2H12.5254V3ZM12.5254 19.9473V20.9473H12.5254L12.5254 19.9473ZM9.3311 19.3252L9.70827 18.3991L9.70818 18.399L9.3311 19.3252ZM7.0518 19.2227L6.72943 18.276L6.72931 18.2761L7.0518 19.2227ZM3.60063 20.3984L2.65406 20.0759L1.99828 22.0008L3.92312 21.345L3.60063 20.3984ZM4.77641 16.9473L5.72298 17.2698L5.72302 17.2696L4.77641 16.9473ZM4.67387 14.668L5.60005 14.2909L5.60002 14.2908L4.67387 14.668ZM4.0518 11.4736L3.0518 11.4736V11.4736H4.0518ZM22.9991 11.4736H23.9991V11.4736L22.9991 11.4736ZM12.5254 21.9473V22.9473H12.5254L12.5254 21.9473ZM12.5254 1L12.5254 0H12.5254V1ZM2.0518 11.4736L1.0518 11.4736V11.4736H2.0518ZM2.82133 15.4219L1.89518 15.799L1.89519 15.799L2.82133 15.4219ZM2.88286 16.3018L3.82951 16.624L3.82958 16.6238L2.88286 16.3018ZM1.70805 19.7529L2.65466 20.0753L2.65471 20.0752L1.70805 19.7529ZM4.24614 22.291L3.92389 21.3444L3.92377 21.3444L4.24614 22.291ZM7.69731 21.1162L7.37525 20.1695L7.37506 20.1696L7.69731 21.1162ZM8.57719 21.1777L8.20002 22.1039L8.20003 22.1039L8.57719 21.1777ZM20.9991 11.4736L21.9991 11.4736C21.999 6.2415 17.7576 2.00003 12.5254 2L12.5254 3L12.5254 4C16.653 4.00002 19.999 7.34607 19.9991 11.4736L20.9991 11.4736ZM12.5254 19.9473L12.5254 20.9473C17.7576 20.9472 21.9991 16.7058 21.9991 11.4736H20.9991H19.9991C19.9991 15.6012 16.653 18.9472 12.5254 18.9473L12.5254 19.9473ZM9.3311 19.3252L8.95393 20.2513C10.0562 20.7002 11.2622 20.9473 12.5254 20.9473V19.9473V18.9473C11.5249 18.9473 10.5748 18.7519 9.70827 18.3991L9.3311 19.3252ZM7.0518 19.2227L7.37417 20.1693C7.88851 19.9941 8.44906 20.0458 8.95402 20.2514L9.3311 19.3252L9.70818 18.399C8.85047 18.0498 7.78695 17.9159 6.72943 18.276L7.0518 19.2227ZM3.60063 20.3984L3.92312 21.345L7.37429 20.1692L7.0518 19.2227L6.72931 18.2761L3.27814 19.4519L3.60063 20.3984ZM4.77641 16.9473L3.82984 16.6248L2.65406 20.0759L3.60063 20.3984L4.5472 20.7209L5.72298 17.2698L4.77641 16.9473ZM4.67387 14.668L3.74769 15.0451C3.95328 15.55 4.00496 16.1106 3.8298 16.6249L4.77641 16.9473L5.72302 17.2696C6.08317 16.2121 5.94926 15.1486 5.60005 14.2909L4.67387 14.668ZM4.0518 11.4736H3.0518C3.0518 12.7368 3.29884 13.9429 3.74773 15.0451L4.67387 14.668L5.60002 14.2908C5.24714 13.4243 5.0518 12.4741 5.0518 11.4736H4.0518ZM12.5254 3V2C7.29328 2 3.05183 6.24149 3.0518 11.4736L4.0518 11.4736L5.0518 11.4736C5.05183 7.34605 8.39786 4 12.5254 4V3ZM22.9991 11.4736H21.9991C21.9991 16.7058 17.7576 20.9472 12.5254 20.9473L12.5254 21.9473L12.5254 22.9473C18.8621 22.9472 23.9991 17.8104 23.9991 11.4736H22.9991ZM12.5254 1L12.5254 2C17.7576 2.00003 21.999 6.2415 21.9991 11.4736L22.9991 11.4736L23.9991 11.4736C23.999 5.13693 18.8621 3.05176e-05 12.5254 0L12.5254 1ZM2.0518 11.4736L3.0518 11.4736C3.05183 6.24148 7.29329 2 12.5254 2V1V0C6.18871 0 1.05183 5.13692 1.0518 11.4736L2.0518 11.4736ZM2.82133 15.4219L3.74748 15.0447C3.29877 13.9429 3.0518 12.7371 3.0518 11.4736H2.0518H1.0518C1.0518 12.9998 1.35045 14.4614 1.89518 15.799L2.82133 15.4219ZM2.88286 16.3018L3.82958 16.6238C4.00429 16.1102 3.95338 15.5503 3.74748 15.0447L2.82133 15.4219L1.89519 15.799C1.95532 15.9467 1.92766 16.0046 1.93614 15.9797L2.88286 16.3018ZM1.70805 19.7529L2.65471 20.0752L3.82951 16.624L2.88286 16.3018L1.9362 15.9795L0.761397 19.4307L1.70805 19.7529ZM4.24614 22.291L3.92377 21.3444C3.13805 21.612 2.38709 20.861 2.65466 20.0753L1.70805 19.7529L0.761439 19.4306C-0.0412958 21.7877 2.21135 24.0404 4.56851 23.2376L4.24614 22.291ZM7.69731 21.1162L7.37506 20.1696L3.92389 21.3444L4.24614 22.291L4.56839 23.2377L8.01956 22.0629L7.69731 21.1162ZM8.57719 21.1777L8.95436 20.2516C8.44878 20.0457 7.88885 19.9948 7.37525 20.1695L7.69731 21.1162L8.01937 22.0629C7.99444 22.0714 8.05236 22.0437 8.20002 22.1039L8.57719 21.1777ZM12.5254 21.9473V20.9473C11.2619 20.9473 10.0562 20.7003 8.95435 20.2516L8.57719 21.1777L8.20003 22.1039C9.53769 22.6486 10.9993 22.9473 12.5254 22.9473V21.9473ZM8.49924 12.5V13.5C9.60381 13.5 10.4992 12.6046 10.4992 11.5H9.49924H8.49924V12.5ZM7.49924 11.5H6.49924C6.49924 12.6046 7.39467 13.5 8.49924 13.5V12.5V11.5H7.49924ZM8.49924 10.5V9.5C7.39467 9.5 6.49924 10.3954 6.49924 11.5H7.49924H8.49924V10.5ZM9.49924 11.5H10.4992C10.4992 10.3954 9.60381 9.5 8.49924 9.5V10.5V11.5H9.49924ZM12.4992 12.5V13.5C13.6038 13.5 14.4992 12.6046 14.4992 11.5H13.4992H12.4992V12.5ZM11.4992 11.5H10.4992C10.4992 12.6046 11.3947 13.5 12.4992 13.5V12.5V11.5H11.4992ZM12.4992 10.5V9.5C11.3947 9.5 10.4992 10.3954 10.4992 11.5H11.4992H12.4992V10.5ZM13.4992 11.5H14.4992C14.4992 10.3954 13.6038 9.5 12.4992 9.5V10.5V11.5H13.4992ZM17.4992 11.5H16.4992V12.5V13.5C17.6038 13.5 18.4992 12.6046 18.4992 11.5H17.4992ZM16.4992 10.5V11.5H17.4992H18.4992C18.4992 10.3954 17.6038 9.5 16.4992 9.5V10.5ZM15.4992 11.5H16.4992V10.5V9.5C15.3947 9.5 14.4992 10.3954 14.4992 11.5H15.4992ZM16.4992 12.5V11.5H15.4992H14.4992C14.4992 12.6046 15.3947 13.5 16.4992 13.5V12.5Z" fill="#818898" mask="url(#path-1-inside-1_12982_2100)"/>
</svg>
